/* XPM */
static char * wammu_xpm[] = {
"32 32 456 2",
"  	c None",
". 	c #EFEFEF",
"+ 	c #EBEAEE",
"@ 	c #EAE9ED",
"# 	c #E9E9EC",
"$ 	c #B9BCBC",
"% 	c #A8ABAB",
"& 	c #A6AAA9",
"* 	c #A6ACAB",
"= 	c #B1B5B5",
"- 	c #F1F1F1",
"; 	c #EFEEF2",
"> 	c #E5E6EC",
", 	c #66676B",
"' 	c #7C7E82",
") 	c #D1D9DB",
"! 	c #D1D8DB",
"~ 	c #D7D8DA",
"{ 	c #5A6160",
"] 	c #868E91",
"^ 	c #9AA2A5",
"/ 	c #9BA3A6",
"( 	c #959C9F",
"_ 	c #889094",
": 	c #646C70",
"< 	c #878C8E",
"[ 	c #D9D9D9",
"} 	c #747377",
"| 	c #E8E8EF",
"1 	c #E1E3EA",
"2 	c #6D7173",
"3 	c #838689",
"4 	c #D3DCDD",
"5 	c #D1DADB",
"6 	c #D9DADC",
"7 	c #8C9294",
"8 	c #E9EEF0",
"9 	c #E1E5E8",
"0 	c #D2D6D8",
"a 	c #CACDD0",
"b 	c #CFD2D9",
"c 	c #C3C5CB",
"d 	c #5B6062",
"e 	c #D7D7D7",
"f 	c #6E6D72",
"g 	c #E2E4E4",
"h 	c #D1D4DA",
"i 	c #BEC1C8",
"j 	c #B3B8BC",
"k 	c #AFB4B7",
"l 	c #B3B8BB",
"m 	c #C5CBCE",
"n 	c #D7DCDE",
"o 	c #A0A5A5",
"p 	c #AFB5B7",
"q 	c #E5E9EC",
"r 	c #DBDFE2",
"s 	c #CDD1D4",
"t 	c #C5C9CE",
"u 	c #CED1D7",
"v 	c #CDD0D7",
"w 	c #62696D",
"x 	c #B0B0B2",
"y 	c #B5B5B8",
"z 	c #ABABAD",
"A 	c #626166",
"B 	c #D3D6D7",
"C 	c #46474D",
"D 	c #414048",
"E 	c #5A5A5C",
"F 	c #57585A",
"G 	c #2C2C31",
"H 	c #555458",
"I 	c #D3D6DA",
"J 	c #9FA5A5",
"K 	c #B6BBBE",
"L 	c #E0E4E7",
"M 	c #D6DADD",
"N 	c #C7CBCF",
"O 	c #C3C6CB",
"P 	c #CCCFD4",
"Q 	c #C6C9CF",
"R 	c #74797E",
"S 	c #656468",
"T 	c #6A6970",
"U 	c #64636A",
"V 	c #605F67",
"W 	c #727079",
"X 	c #D4D3D6",
"Y 	c #98999C",
"Z 	c #343A3D",
"` 	c #3F474A",
" .	c #313642",
"..	c #2C3340",
"+.	c #262C37",
"@.	c #22232B",
"#.	c #B8BCBF",
"$.	c #A1A7A7",
"%.	c #B7BBBF",
"&.	c #D9DCE1",
"*.	c #AEB2B7",
"=.	c #83878C",
"-.	c #8A8E95",
";.	c #C1C5CB",
">.	c #C0C3CA",
",.	c #85888D",
"'.	c #ABAAAE",
").	c #666569",
"!.	c #838385",
"~.	c #9D9C9E",
"{.	c #8B8A93",
"].	c #D9D8DB",
"^.	c #7C7C7E",
"/.	c #818382",
"(.	c #8E7D7E",
"_.	c #707688",
":.	c #6A677A",
"<.	c #5F657D",
"[.	c #505867",
"}.	c #9C9E9D",
"|.	c #9FA6A6",
"1.	c #9DA2AB",
"2.	c #758098",
"3.	c #7D8BB0",
"4.	c #7684A9",
"5.	c #65728F",
"6.	c #6A7890",
"7.	c #798296",
"8.	c #909499",
"9.	c #A6A5A9",
"0.	c #6F6F72",
"a.	c #4A4C4B",
"b.	c #57565A",
"c.	c #504F54",
"d.	c #908F94",
"e.	c #BDBCBF",
"f.	c #727375",
"g.	c #655E59",
"h.	c #706D6C",
"i.	c #6E8AA5",
"j.	c #6E98BF",
"k.	c #76A0C1",
"l.	c #657D8D",
"m.	c #8E8E8D",
"n.	c #9AA1A1",
"o.	c #8A93A6",
"p.	c #5E75AC",
"q.	c #576C9E",
"r.	c #495C84",
"s.	c #47587F",
"t.	c #6C81BC",
"u.	c #61729B",
"v.	c #999BA2",
"w.	c #959696",
"x.	c #5E7468",
"y.	c #688275",
"z.	c #697F77",
"A.	c #657971",
"B.	c #78807F",
"C.	c #AFAFB2",
"D.	c #787879",
"E.	c #6D7887",
"F.	c #7792B1",
"G.	c #6B8CB6",
"H.	c #6B91B4",
"I.	c #7293B6",
"J.	c #6D7F8C",
"K.	c #8E908F",
"L.	c #9AA0A0",
"M.	c #8992A6",
"N.	c #657DB8",
"O.	c #5E73A8",
"P.	c #42577A",
"Q.	c #465A7F",
"R.	c #7087C4",
"S.	c #6276A2",
"T.	c #989CA0",
"U.	c #7D807D",
"V.	c #82A690",
"W.	c #8DB4A1",
"X.	c #81AA9B",
"Y.	c #8DB99F",
"Z.	c #75867F",
"`.	c #AAA9AB",
" +	c #88888A",
".+	c #5D6572",
"++	c #607792",
"@+	c #516A89",
"#+	c #4F6987",
"$+	c #5C738D",
"%+	c #55636E",
"&+	c #9D9F9F",
"*+	c #989F9E",
"=+	c #8D97A7",
"-+	c #5970A7",
";+	c #6278B0",
">+	c #6176AB",
",+	c #576D9E",
"'+	c #647CB4",
")+	c #6076A1",
"!+	c #95999D",
"~+	c #898E8B",
"{+	c #7C9B89",
"]+	c #85A895",
"^+	c #84AA94",
"/+	c #80A491",
"(+	c #76847E",
"_+	c #A8A8A8",
":+	c #A7A6AA",
"<+	c #131318",
"[+	c #17191C",
"}+	c #18191D",
"|+	c #17191D",
"1+	c #16181C",
"2+	c #141616",
"3+	c #B8B9B9",
"4+	c #959C9B",
"5+	c #959EA9",
"6+	c #6D7FA1",
"7+	c #6E82A8",
"8+	c #798EBF",
"9+	c #6B7EA8",
"0+	c #68779B",
"a+	c #7A8AA6",
"b+	c #919497",
"c+	c #9D9E9E",
"d+	c #434947",
"e+	c #494F50",
"f+	c #4E5651",
"g+	c #3D4643",
"h+	c #76787A",
"i+	c #C5C4C5",
"j+	c #BFC0C1",
"k+	c #767779",
"l+	c #5E5F61",
"m+	c #7C7875",
"n+	c #7C7A78",
"o+	c #666768",
"p+	c #818284",
"q+	c #C6C6C7",
"r+	c #929A99",
"s+	c #ACAFB2",
"t+	c #C3C7CA",
"u+	c #BDC2C6",
"v+	c #B8BABF",
"w+	c #BCBCC2",
"x+	c #B0B3B6",
"y+	c #B9BABC",
"z+	c #818789",
"A+	c #80807F",
"B+	c #919195",
"C+	c #4E4E54",
"D+	c #625F66",
"E+	c #5A585F",
"F+	c #A2A1A6",
"G+	c #BABABB",
"H+	c #AFB5B2",
"I+	c #A6B1AD",
"J+	c #999A9E",
"K+	c #908E8D",
"L+	c #929390",
"M+	c #A0A3A1",
"N+	c #B6ABA9",
"O+	c #C3BFC0",
"P+	c #8C9594",
"Q+	c #ADB2B5",
"R+	c #B5C4C1",
"S+	c #B4BABD",
"T+	c #ACAFB1",
"U+	c #B1B3B5",
"V+	c #B0B4B8",
"W+	c #C6C3C4",
"X+	c #757B7D",
"Y+	c #8B8C94",
"Z+	c #97989E",
"`+	c #98979E",
" @	c #A4A6AF",
".@	c #5B5C62",
"+@	c #AEAEB0",
"@@	c #B5B4B5",
"#@	c #A4A3A3",
"$@	c #A4A4A4",
"%@	c #9E9E9F",
"&@	c #A0A1A2",
"*@	c #A2A7A6",
"=@	c #A6A6A3",
"-@	c #C8C9C9",
";@	c #848B8B",
">@	c #757E7F",
",@	c #B6BDBB",
"'@	c #CED1D0",
")@	c #DFDFDF",
"!@	c #D5D8D7",
"~@	c #C6C1C1",
"{@	c #9F9EA1",
"]@	c #555B5D",
"^@	c #5B5C5F",
"/@	c #4D484F",
"(@	c #58565B",
"_@	c #616065",
":@	c #5C5E62",
"<@	c #3F4044",
"[@	c #B5B7B8",
"}@	c #888785",
"|@	c #8D8D89",
"1@	c #999A95",
"2@	c #A1A29D",
"3@	c #8D8E89",
"4@	c #898B85",
"5@	c #C8C9C7",
"6@	c #899192",
"7@	c #767E7F",
"8@	c #8F9395",
"9@	c #616A6A",
"0@	c #787F7F",
"a@	c #697172",
"b@	c #6E7477",
"c@	c #92969A",
"d@	c #545D5E",
"e@	c #5B6060",
"f@	c #564D54",
"g@	c #625B62",
"h@	c #7B7A7F",
"i@	c #5B5D62",
"j@	c #49494F",
"k@	c #BEBFC1",
"l@	c #7F7E7C",
"m@	c #8A8B86",
"n@	c #B2B3AE",
"o@	c #B8B9B4",
"p@	c #8B8C87",
"q@	c #878883",
"r@	c #C5C6C3",
"s@	c #919999",
"t@	c #797F80",
"u@	c #ADAFB3",
"v@	c #6E7577",
"w@	c #C7C7C9",
"x@	c #949799",
"y@	c #83888B",
"z@	c #AEB0B2",
"A@	c #505A5A",
"B@	c #6F6F73",
"C@	c #7D7C81",
"D@	c #58575C",
"E@	c #65646A",
"F@	c #65646B",
"G@	c #818088",
"H@	c #CFCFD2",
"I@	c #8D8D8A",
"J@	c #B9BAB5",
"K@	c #C0C1BC",
"L@	c #9D9E99",
"M@	c #9C9D98",
"N@	c #C5C5C3",
"O@	c #99A1A0",
"P@	c #6B7375",
"Q@	c #AFB1B5",
"R@	c #6C7475",
"S@	c #C4C5C3",
"T@	c #8F9193",
"U@	c #888F8F",
"V@	c #A4A8A7",
"W@	c #4D5657",
"X@	c #6C6B6F",
"Y@	c #8B8A8F",
"Z@	c #717075",
"`@	c #7D7C84",
" #	c #7A7981",
".#	c #7B7A82",
"+#	c #D5D5D7",
"@#	c #939390",
"##	c #888984",
"$#	c #B4B5B0",
"%#	c #90918C",
"&#	c #A9A9A7",
"*#	c #BEBEBF",
"=#	c #626C6D",
"-#	c #B7B6BB",
";#	c #666E70",
">#	c #C0BFC1",
",#	c #7F8587",
"'#	c #92999A",
")#	c #959B9C",
"!#	c #505B5C",
"~#	c #6A696D",
"{#	c #77767A",
"]#	c #535257",
"^#	c #6D6C71",
"/#	c #5B5A60",
"(#	c #6F6E73",
"_#	c #A9A9AB",
":#	c #D4D5D6",
"<#	c #A6A8A5",
"[#	c #92938D",
"}#	c #B9BAB3",
"|#	c #C2C3BD",
"1#	c #9A9B95",
"2#	c #BBBBBA",
"3#	c #B7B7B8",
"4#	c #515B5C",
"5#	c #BBBBC0",
"6#	c #666D71",
"7#	c #BABBBD",
"8#	c #777E80",
"9#	c #9CA0A2",
"0#	c #81888A",
"a#	c #546061",
"b#	c #727175",
"c#	c #9A999D",
"d#	c #757478",
"e#	c #828186",
"f#	c #C0C2C4",
"g#	c #CACECC",
"h#	c #B3B5B3",
"i#	c #B2B3B2",
"j#	c #B4B5B4",
"k#	c #B9BBB9",
"l#	c #D5D5D5",
"m#	c #3C4647",
"n#	c #8C9295",
"o#	c #5E6669",
"p#	c #B3B8B9",
"q#	c #6D7475",
"r#	c #898F91",
"s#	c #4E595A",
"t#	c #677371",
"u#	c #A8A7AA",
"v#	c #48474C",
"w#	c #4A494E",
"x#	c #58575D",
"y#	c #4C4B50",
"z#	c #5C5B5F",
"A#	c #A0A1A4",
"B#	c #B4B7BA",
"C#	c #BCBFC2",
"D#	c #B1B4B7",
"E#	c #4A5355",
"F#	c #293435",
"G#	c #2B3536",
"H#	c #414B4C",
"I#	c #303B3C",
"J#	c #283535",
"K#	c #1F2C2B",
"L#	c #79797B",
"M#	c #4D4C51",
"N#	c #45444D",
"O#	c #535358",
"P#	c #AFAFB0",
"Q#	c #D6D6D7",
"R#	c #D8D8D8",
"S#	c #A5A9A9",
"T#	c #8E9494",
"U#	c #858D8C",
"V#	c #89908F",
"W#	c #959999",
"                                                                ",
"                                                                ",
"                                                                ",
"                                                                ",
"                                                                ",
"      . + @ #               $ % & * =                           ",
"  - ; > , ' ) ! ~         { ] ^ / ( _ : <                 [ }   ",
"  . | 1 2 3 4 5 6         7 8 9 0 a b c d                 e f   ",
"  g h i j k l m n       o p q r s t u v w             x y z A   ",
"  B C D E F G H I       J K L M N O P Q R           S T U V W X ",
"  Y Z `  ...+.@.#.      $.%.&.*.=.-.;.>.,.        '.).!.~.T {.].",
"  ^./.(._.:.<.[.}.      |.1.2.3.4.5.6.7.8.        9.0.a.b.c.d.e.",
"  f.g.h.i.j.k.l.m.      n.o.p.q.r.s.t.u.v.        w.x.y.z.A.B.C.",
"  D.E.F.G.H.I.J.K.      L.M.N.O.P.Q.R.S.T.        U.V.W.X.Y.Z.`.",
"   +.+++@+#+$+%+&+      *+=+-+;+>+,+'+)+!+        ~+{+]+^+/+(+_+",
"  :+<+[+}+|+1+2+3+      4+5+6+7+8+9+0+a+b+        c+d+e+f+g+h+i+",
"  j+k+l+m+n+o+p+q+      r+s+t+u+v+w+x+y+z+        A+B+C+D+E+F+G+",
"  H+I+J+K+L+M+N+O+      P+Q+R+S+T+U+V+W+X+        E Y+Z+`+ @.@+@",
"  @@#@$@%@&@*@=@-@      ;@>@,@'@)@!@~@{@]@        ^@/@(@_@:@<@  ",
"  [@}@|@1@2@3@4@5@      6@7@8@9@0@a@b@c@d@        e@f@g@h@i@j@  ",
"  k@l@m@n@o@p@q@r@      s@t@u@v@w@x@y@z@A@        B@C@D@E@F@G@  ",
"  H@I@1@J@K@L@M@N@      O@P@Q@R@S@T@U@V@W@        X@Y@Z@`@ #.#  ",
"  +#@###$#K@%#&#*#        =#-#;#>#,#'#)#!#        ~#{#]#^#/#(#_#",
"  :#<#[#}#|#1#2#3#        4#5#6#7#8#9#0#a#        b#c#d#e#C@Y@  ",
"  f#g#h#i#j#k#l#_+        m#n#o#p#q#r#s#t#        u#v#w#x#y#z#  ",
"    A#B#C#C#D#w.          E#F#G#H#I#J#K#            L#M#N#O#P#  ",
"        Q#R#                S#T#U#V#W#                          ",
"                                                                ",
"                                                                ",
"                                                                ",
"                                                                ",
"                                                                "};
