/* XPM */
static char *wammu[] = {
/* columns rows colors chars-per-pixel */
"32 32 207 2",
"   c black",
".  c #080600",
"X  c #090600",
"o  c #0A0700",
"O  c #0B0800",
"+  c #0C0800",
"@  c #0C0900",
"#  c #0D0900",
"$  c #0E0A00",
"%  c gray4",
"&  c #0B0B0A",
"*  c #0D0D0C",
"=  c gray5",
"-  c #0F0F0E",
";  c #100B00",
":  c #100C00",
">  c #110D00",
",  c #130E00",
"<  c #100E0A",
"1  c #120F08",
"2  c #161000",
"3  c #171000",
"4  c #141109",
"5  c #14110B",
"6  c #15120A",
"7  c #17140E",
"8  c #1A150A",
"9  c #19160E",
"0  c #1D180B",
"q  c #141312",
"w  c #181612",
"e  c #181715",
"r  c #191815",
"t  c #1B1A17",
"y  c #1C1810",
"u  c #1C1911",
"i  c #1E1A11",
"p  c #1F1B12",
"a  c #1F1C14",
"s  c #1F1E1A",
"d  c #201A0B",
"f  c #221B09",
"g  c #281D00",
"h  c #211D15",
"j  c #2E2100",
"k  c #21201D",
"l  c #21201F",
"z  c #242119",
"x  c #2B2310",
"c  c #2E2511",
"v  c #322400",
"b  c #342A0E",
"n  c #372B0C",
"m  c #372B0D",
"M  c #392900",
"N  c #332A11",
"B  c #3E3212",
"V  c #2D2A23",
"C  c #312D23",
"Z  c #332F27",
"A  c #37332A",
"S  c #3F3A2D",
"D  c #473300",
"F  c #45350D",
"G  c #47370D",
"H  c #4B3600",
"J  c #4B390C",
"K  c #4F3C0C",
"L  c #4C3B10",
"P  c #4C3C12",
"I  c #523B00",
"U  c #553D00",
"Y  c #503C0A",
"T  c #523E0C",
"R  c #413D32",
"E  c #423E36",
"W  c #423F37",
"Q  c #55400B",
"!  c #56410B",
"~  c #5A430B",
"^  c #5E460A",
"/  c #5F470C",
"(  c #554110",
")  c #494439",
"_  c #694E0A",
"`  c #6D5109",
"'  c #6E5209",
"]  c #705100",
"[  c #725100",
"{  c #775600",
"}  c #7B5800",
"|  c #7F5B00",
" . c #4D4941",
".. c #514E46",
"X. c #524E44",
"o. c #545048",
"O. c #5F5A4F",
"+. c #5B5851",
"@. c #636059",
"#. c #60605F",
"$. c #646058",
"%. c #64615B",
"&. c #68655F",
"*. c #666561",
"=. c #6B6963",
"-. c #6E6C66",
";. c #6E6C67",
":. c gray42",
">. c #74736F",
",. c #787671",
"<. c #7F7E7A",
"1. c #825D00",
"2. c #835F05",
"3. c #846005",
"4. c #896200",
"5. c #8A6300",
"6. c #8B6300",
"7. c #8A6405",
"8. c #8C6400",
"9. c #8D6603",
"0. c #8E6600",
"q. c #8F6600",
"w. c #926900",
"e. c #936900",
"r. c #946A00",
"t. c #976D02",
"y. c #996D00",
"u. c #986D02",
"i. c #9E7200",
"p. c #9F7200",
"a. c #A27501",
"s. c #A37500",
"d. c #A67801",
"f. c #A77800",
"g. c #AD7C00",
"h. c #AE7D00",
"j. c #AF7E00",
"k. c #B17F00",
"l. c #B88400",
"z. c #B98500",
"x. c #BB8600",
"c. c #BC8700",
"v. c #BF8900",
"b. c #C08A00",
"n. c #C38C00",
"m. c #C88F00",
"M. c #CD9300",
"N. c #CE9400",
"B. c #D59800",
"V. c #D69900",
"C. c #D79A00",
"Z. c #DC9D00",
"A. c #DC9E00",
"S. c #DD9F00",
"D. c #E0A100",
"F. c #E1A200",
"G. c #E2A200",
"H. c #E4A400",
"J. c #E6A500",
"K. c #E8A700",
"L. c #ECA900",
"P. c #EDAA00",
"I. c #EEAB00",
"U. c #EFAC00",
"Y. c #F0AC00",
"T. c #F5B000",
"R. c #F6B000",
"E. c #F7B100",
"W. c #F8B200",
"Q. c #F9B300",
"!. c #FAB300",
"~. c #FBB400",
"^. c gray52",
"/. c #888888",
"(. c #8D8C8B",
"). c #999897",
"_. c #989898",
"`. c #9B9B9B",
"'. c #9F9F9F",
"]. c #A0A09F",
"[. c #A2A2A2",
"{. c #A6A6A5",
"}. c #ACACAB",
"|. c #B2B2B2",
" X c #B6B6B6",
".X c #B9B9B9",
"XX c #BCBCBC",
"oX c #C1C1C1",
"OX c #C6C6C6",
"+X c #CBCBCB",
"@X c #CECECE",
"#X c gray81",
"$X c gray82",
"%X c LightGray",
"&X c #D7D7D7",
"*X c gray86",
"=X c gray89",
"-X c gray92",
";X c #F1F1F1",
":X c #F4F4F4",
">X c #F8F8F8",
",X c gray98",
"<X c gray99",
"1X c #FDFDFD",
"2X c #FEFEFE",
"3X c gray100",
"4X c None",
/* pixels */
"4X4X4X4X4X4X4X4X4X4X    O 3 : $ $ : 3 $     4X4X4X4X4X4X4X4X4X4X",
"4X4X4X4X4X4X4X4X  X O j 5.l.V.U.U.C.l.0.v O $   4X4X4X4X4X4X4X4X",
"4X4X4X4X4X4X  X $ ] J.Q.~.~.~.~.~.~.~.~.~.K.{ $ O   4X4X4X4X4X4X",
"4X4X4X4X4X  : D Z.Z.i._ c ~ b.~.~.~.~.~.~.~.~.G.I :   4X4X4X4X4X",
"4X4X4X4X  $ | Q.2.p $._.& ^.9 b.~.~.~.~.~.~.~.~.~.5.$   4X4X4X4X",
"4X4X4X  $ f.~.J  .-X3X3X- *X@.y.~.~.~.~.~.~.~.~.~.~.g.$   4X4X4X",
"4X4X  $ 1.~.g.R 3X3X3X3Xq $X&.r.~.~.~.~.~.~.~.~.~.~.~.0.$   4X4X",
"4X4XX H ~.~.` `.3X3X3X3Xe OX;.0.~.~.~.~.~.~.~.~.~.~.~.~.U $ 4X4X",
"4X  $ D.~.~.( .X3X3X3X3Xt XX>.7.~.~.~.~.~.~.~.~.~.~.~.~.J.$   4X",
"4X$ [ ~.~.~.` '.3X3X3X3Xh :.V p.~.~.~.~.~.~.~.~.~.~.~.~.Q.{ ; 4X",
"4X$ D.~.~.~.0.<.3X3X3X&Xw F i.~.~.~.~.~.~.~.~.~.~.~.~.~.~.L.O   ",
"  g ~.~.~.~.g.O.3X3X3Xa a.~.~.~.~.~.~.~.~.~.~.~.~.~.~.~.~.~.M   ",
"$ 1.~.~.~.~.M.S 3X3X=X8 Q.~.~.~.~.~.~.~.~.~.~.~.~.~.~.~.~.~.e.$ ",
"3 l.~.~.~.~.L.p 3X3X3X7 V.~.~.~.~.~.~.~.~.~.~.~.~.~.~.~.~.~.n.3 ",
": V.~.~.~.~.~.4 :X3X3X).F ~.~.~.~.~.~.~.~.~.~.~.~.~.~.~.~.~.S.: ",
"$ U.~.~.~.~.~.T [.3X3X3XA f.~.~.~.~.~.~.~.~.~.~.~.~.~.~.~.~.R.O ",
"$ I.~.~.~.~.~.b.C 3X3X3X#X0 L.~.~.~.~.~.~.~.~.~.~.~.~.~.~.~.R.X ",
": V.~.~.~.~.~.~.n oX3X3X3X;.` Q.~.~.~.~.~.~.~.~.~.~.~.~.~.~.S.: ",
"3 l.~.~.~.~.~.~.a.X.3X3X3X;Xp M.~.~.~.~.~.~.~.~.~.~.~.~.~.~.n.3 ",
"$ 1.~.~.~.~.~.~.Q.0 +X3X3X3X{.n ~.~.~.~.~.~.~.~.~.~.~.~.~.~.e.$ ",
"  g ~.~.~.~.~.~.~.l.h -X3X3X3XW t.~.~.I.k.r.Z.~.~.~.~.~.~.~.M   ",
"4X$ D.~.~.~.~.~.~.~.2.W :X3X3X*Xz L B * r %.7 y.~.~.~.~.~.L.O   ",
"4X$ [ ~.~.~.~.~.~.~.Q.^ ..3X3X3X:X XOX/.* *.#XZ K J.~.~.~.} : 4X",
"4X  $ D.~.~.~.~.~.~.Q.Q.Q +.3X3X3X3X3X3X*Xk k +X,.f R.~.J.$   4X",
"4X4XX H ~.~.~.~.~.~.~.~.R.K  .-X3X3X3X3X3X3X+.& (.a N.~.U $ 4X4X",
"4X4X  ; 1.~.~.~.~.~.~.~.~.Q.7.p }.3X3X3X3X3X3X|.- 1 Q.5.;   4X4X",
"4X4X4X  $ f.~.~.~.~.~.~.~.~.~.V.n ) [.%X*XXX=.7 T m.g.$   4X4X4X",
"4X4X4X4X  $ | ~.~.~.~.~.~.~.~.~.~.g./ N x P 0.J.~.7.$   4X4X4X4X",
"4X4X4X4X4X  $ H A.~.~.~.~.~.~.~.~.~.~.~.~.~.~.D.I :   4X4X4X4X4X",
"4X4X4X4X4X4X  . $ [ J.~.~.~.~.~.~.~.~.~.~.J.{ $ O   4X4X4X4X4X4X",
"4X4X4X4X4X4X4X4X  O O j 5.l.V.U.U.C.c.0.v O $   4X4X4X4X4X4X4X4X",
"4X4X4X4X4X4X4X4X4X4X    $ 3 : $ $ : 3 O     4X4X4X4X4X4X4X4X4X4X"
};
