/* XPM */
static char *wammu[] = {
/* columns rows colors chars-per-pixel */
"31 32 215 2",
"   c #000000",
".  c #010000",
"X  c #060400",
"o  c #060401",
"O  c #070500",
"+  c #050505",
"@  c #070704",
"#  c #060606",
"$  c #090703",
"%  c #0A0700",
"&  c #0A0803",
"*  c #0B0905",
"=  c #0C0900",
"-  c #0C0902",
";  c #0F0B00",
":  c #0C0B09",
">  c #0D0C09",
",  c #0C0C0C",
"<  c #0D0D0C",
"1  c #0F0E0C",
"2  c #0E0E0E",
"3  c #0F0F0E",
"4  c #0F0F0F",
"5  c #110C01",
"6  c #110D01",
"7  c #150F00",
"8  c #171000",
"9  c #171100",
"0  c #10100E",
"q  c #181100",
"w  c #1A1300",
"e  c #1B1300",
"r  c #1E1500",
"t  c #1E1600",
"y  c #1F1600",
"u  c #111111",
"i  c #121212",
"p  c #141412",
"a  c #161616",
"s  c #1A1A19",
"d  c #1B1B1B",
"f  c #1C1C1C",
"g  c #1D1D1D",
"h  c #1E1E1E",
"j  c #211700",
"k  c #231900",
"l  c #241900",
"z  c #322300",
"x  c #362700",
"c  c #372700",
"v  c #392900",
"b  c #3A2900",
"n  c #3C2B00",
"m  c #3D2C00",
"M  c #202020",
"N  c #212121",
"B  c #222222",
"V  c #232323",
"C  c #282828",
"Z  c #2A2A2A",
"A  c #2B2B2B",
"S  c #2C2C2C",
"D  c #323232",
"F  c #333333",
"G  c #343434",
"H  c #353535",
"J  c #383838",
"K  c #393939",
"L  c #3A3A3A",
"P  c #3C3C3C",
"I  c #493400",
"U  c #4E3800",
"Y  c #513A00",
"T  c #523B00",
"R  c #543C00",
"E  c #553D00",
"W  c #5A4000",
"Q  c #5D4200",
"!  c #5E4300",
"~  c #644800",
"^  c #654800",
"/  c #664900",
"(  c #674A00",
")  c #684A00",
"_  c #6C4D00",
"`  c #745300",
"'  c #755300",
"]  c #765400",
"[  c #775500",
"{  c #785600",
"}  c #7A5700",
"|  c #7C5900",
" . c #7E5A00",
".. c #7F5B00",
"X. c #434343",
"o. c #444444",
"O. c #454545",
"+. c #484848",
"@. c #4C4C4C",
"#. c #4E4E4E",
"$. c #515151",
"%. c #525252",
"&. c #555555",
"*. c #595959",
"=. c #5A5A5A",
"-. c #5C5C5C",
";. c #676767",
":. c #6F6F6F",
">. c #737373",
",. c #747474",
"<. c #797979",
"1. c #855F00",
"2. c #8B6400",
"3. c #8D6500",
"4. c #916800",
"5. c #926900",
"6. c #966B00",
"7. c #976C00",
"8. c #9E7100",
"9. c #9F7200",
"0. c #A07300",
"q. c #A37500",
"w. c #A77800",
"e. c #A97900",
"r. c #AA7A00",
"t. c #AE7D00",
"y. c #AF7D00",
"u. c #B17E00",
"i. c #B27F00",
"p. c #B68200",
"a. c #BE8800",
"s. c #BF8900",
"d. c #C18A00",
"f. c #C48D00",
"g. c #C58D00",
"h. c #CA9100",
"j. c #CD9300",
"k. c #CE9400",
"l. c #D29600",
"z. c #D59800",
"x. c #D69900",
"c. c #DB9D00",
"v. c #DC9E00",
"b. c #DD9E00",
"n. c #DFA000",
"m. c #E0A000",
"M. c #E1A100",
"N. c #E2A200",
"B. c #E5A400",
"V. c #E6A500",
"C. c #E8A600",
"Z. c #EAA700",
"A. c #EAA800",
"S. c #EDAA00",
"D. c #EEAB00",
"F. c #F2AE00",
"G. c #F4AE00",
"H. c #F4AF00",
"J. c #F7B100",
"K. c #F8B200",
"L. c #F9B200",
"P. c #F9B300",
"I. c #FAB300",
"U. c #FBB400",
"Y. c #828282",
"T. c #878787",
"R. c #888888",
"E. c #8B8B8B",
"W. c #8E8E8E",
"Q. c #949494",
"!. c #9A9A9A",
"~. c #9B9B9B",
"^. c #9C9C9C",
"/. c #9E9E9E",
"(. c #A1A1A1",
"). c #A4A4A4",
"_. c #A5A5A5",
"`. c #A7A7A7",
"'. c #A9A9A9",
"]. c #AAAAAA",
"[. c #ACACAC",
"{. c #B4B4B4",
"}. c #BBBBBB",
"|. c #BCBCBC",
" X c #BFBFBF",
".X c #C1C1C1",
"XX c #C3C3C3",
"oX c #C4C4C4",
"OX c #C6C6C6",
"+X c #CACACA",
"@X c #CCCCCC",
"#X c #CDCDCD",
"$X c #D3D3D3",
"%X c #D6D6D6",
"&X c #DADADA",
"*X c #DCDCDC",
"=X c #DDDDDD",
"-X c #DFDFDF",
";X c #E0E0E0",
":X c #E3E3E3",
">X c #E5E5E5",
",X c #E6E6E6",
"<X c #E7E7E7",
"1X c #E8E8E8",
"2X c #EAEAEA",
"3X c #EDEDED",
"4X c #F0F0F0",
"5X c #F1F1F1",
"6X c #F5F5F5",
"7X c #FBFBFB",
"8X c #FCFCFC",
"9X c #FDFDFD",
"0X c #FEFEFE",
"qX c gray100",
"wX c None",
/* pixels */
"wXwXwXwXwXwXwXwXwXwXoX>.K 4       4 K ,.XXwXwXwXwXwXwXwXwXwXwX",
"wXwXwXwXwXwXwXqX`.Z ; Y 4.a.c.B.c.a.4.Y ; Z `.7XwXwXwXwXwXwXwX",
"wXwXwXwXwXwX+XF q 3.Z.U.U.U.U.U.U.U.U.U.Z.3.7 H #XwXwXwXwXwXwX",
"wXwXwXwXwX).2 ~ s.{ n r r Q m.P.U.U.U.U.U.U.Z./ 2 ).wXwXwXwXwX",
"wXwXwXwX).& 7./ : =./.: M &.b U.U.U.U.U.U.U.U.U.8.$ ).wXwXwXwX",
"wXwXwX[.$ t.W H *XqX7Xa A XXj U.U.U.U.U.U.U.U.U.U.t.$ [.wXwXwX",
"wXwX&X2 7.g.2 1XqXqXqXh C OXe U.U.U.U.U.U.U.U.U.U.U.6.2 &XwXwX",
"wXwXo.E P. .-.qXqXqXqXV M +X7 P.U.U.U.U.U.U.U.U.U.U.P.E o.wXwX",
"wX{.; m.U.( <.qXqXqXqXZ f #X7 P.U.U.U.U.U.U.U.U.U.U.U.m.; {.wX",
"wXP ' U.U._ ,.qXqXqXqXF i /.7 P.U.U.U.U.U.U.U.U.U.U.U.U.' P wX",
"&Xo v.U.U.{ ;.qXqXqX<XM   6 r.U.U.U.U.U.U.U.U.U.U.U.U.U.v.o &X",
"W.n U.U.U.3.$.qXqXqXK U s.V.P.U.U.U.U.U.U.U.U.U.U.U.U.U.U.n W.",
"+. .U.U.U.r.F qXqX-Xo D.U.U.U.U.U.U.U.U.U.U.U.U.U.U.U.U.U. .+.",
"h u.U.U.U.j.4 qXqX3X@ v.U.U.U.U.U.U.U.U.U.U.U.U.U.U.U.U.U.u.h ",
"  l.U.U.U.G.o *XqXqX$.( U.U.U.U.U.U.U.U.U.U.U.U.U.U.U.U.U.l.  ",
"  m.U.U.U.U.c (.qXqX%X* z.U.U.U.U.U.U.U.U.U.U.U.U.U.U.U.U.m.  ",
"  m.U.U.U.U.{ =.qXqXqX;.E U.U.U.U.U.U.U.U.U.U.U.U.U.U.U.U.m.  ",
"  l.U.U.U.U.j.4 4XqXqX,X2 s.U.U.U.U.U.U.U.U.U.U.U.U.U.U.U.l.  ",
"h u.U.U.U.U.P.z Q.qXqXqXY.c P.U.U.U.U.U.U.U.U.U.U.U.U.U.U.u.h ",
"+...U.U.U.U.U.r.s 3XqXqX6Xh 0.U.U.U.U.U.U.U.U.U.U.U.U.U.U. .+.",
"W.n U.U.U.U.U.P.I =.qXqXqX].7 B.U.U.U.P.j.Z.U.U.U.U.U.U.U.n W.",
"&Xo v.U.U.U.U.U.m.q ~.qXqXqX#.T S.g.W 7 2 6 q.U.U.U.U.U.v.o &X",
"wXP ' U.U.U.U.U.U.p.1 #XqXqX,XF $ : o   :.].p _ G.U.U.U.' P wX",
"wX{.; m.U.U.U.U.U.U.1.h :XqXqX7X-X4XXXh   X.oXF b B.U.m.; {.wX",
"wXwXo.E P.U.U.U.U.U.U./ C ,XqXqXqXqXqX1X@.  h }.o.' P.E o.wXwX",
"wXwX&X2 7.U.U.U.U.U.U.P.Q V %XqXqXqXqXqXqXE.# # d 4.7.2 &XwXwX",
"wXwXwX[.$ u.U.U.U.U.U.U.P. .2 !.qXqXqXqXqXqX!.    4.$ [.wXwXwX",
"wXwXwXwX).$ 8.U.U.U.U.U.U.U.i.k Z T.|. XT.H ; / ' * ).wXwXwXwX",
"wXwXwXwXwX).2 / Z.U.U.U.U.U.U.F.8.U l j U 7.z.~ 2 ).wXwXwXwXwX",
"wXwXwXwXwXwX#XF 7 3.Z.U.U.U.U.U.P.P.U.U.Z.2.q H #XwXwXwXwXwXwX",
"wXwXwXwXwXwXwX7X`.Z ; Y 4.s.v.B.v.s.4.Y ; Z ).qXwXwXwXwXwXwXwX",
"wXwXwXwXwXwXwXwXwXwXXX,.K 4       4 K ,.oXwXwXwXwXwXwXwXwXwXwX"
};
