/* XPM */
static char *wammu[] = {
/* columns rows colors chars-per-pixel */
"32 32 238 2",
"   c black",
".  c #020100",
"X  c #020200",
"o  c #030200",
"O  c #040300",
"+  c #050300",
"@  c #050400",
"#  c #060400",
"$  c #080600",
"%  c #090600",
"&  c #0A0700",
"*  c #0A0800",
"=  c #0B0800",
"-  c #0C0800",
";  c #0C0900",
":  c #0D0900",
">  c #0D0A00",
",  c #0E0A00",
"<  c #0F0A00",
"1  c #0F0B00",
"2  c gray4",
"3  c #0B0B0B",
"4  c #0F0E0A",
"5  c gray5",
"6  c #0E0D0D",
"7  c #100B00",
"8  c #100C00",
"9  c #110C00",
"0  c #120D00",
"q  c #120F09",
"w  c #161000",
"e  c #10100F",
"r  c #141109",
"t  c #14110B",
"y  c #15120A",
"u  c #17140E",
"i  c #181100",
"p  c #1A1300",
"a  c #1B1300",
"s  c #1C1400",
"d  c #1E1600",
"f  c #1F1600",
"g  c #1A150A",
"h  c #19160E",
"j  c #1D180B",
"k  c #141312",
"l  c #181612",
"z  c #181715",
"x  c #191815",
"c  c #1C1810",
"v  c #1C1911",
"b  c #1E1A11",
"n  c #1F1B12",
"m  c #1F1C14",
"M  c #1B1A18",
"N  c #1F1E1B",
"B  c #201700",
"V  c #211800",
"C  c #231900",
"Z  c #251A00",
"A  c #251B00",
"S  c #261B00",
"D  c #201A0B",
"F  c #221B09",
"G  c #291E00",
"H  c #211D15",
"J  c #21201D",
"K  c #242119",
"L  c #2B2310",
"P  c #2D2511",
"I  c #302200",
"U  c #332500",
"Y  c #352600",
"T  c #342A0E",
"R  c #372B0C",
"E  c #372B0D",
"W  c #392900",
"Q  c #3B2B00",
"!  c #3C2B00",
"~  c #3D2C00",
"^  c #3E2D00",
"/  c #3F2D00",
"(  c #332A11",
")  c #3E3212",
"_  c #222120",
"`  c #2D2A23",
"'  c #312D23",
"]  c #332F27",
"[  c #37332A",
"{  c #3F3A2D",
"}  c #402E00",
"|  c #412E00",
" . c #443100",
".. c #45350D",
"X. c #47360D",
"o. c #493400",
"O. c #4B390C",
"+. c #4F3C0C",
"@. c #4C3B10",
"#. c #4C3C12",
"$. c #503C0A",
"%. c #523E0C",
"&. c #413D32",
"*. c #423E36",
"=. c #423F37",
"-. c #55400B",
";. c #56410B",
":. c #5A430B",
">. c #5E460A",
",. c #5F470C",
"<. c #554110",
"1. c #494439",
"2. c #694E0A",
"3. c #6D5109",
"4. c #6E5209",
"5. c #7C5900",
"6. c #7F5B00",
"7. c #4D4941",
"8. c #514E46",
"9. c #524E44",
"0. c #545048",
"q. c #5F5A4F",
"w. c #5B5851",
"e. c #636059",
"r. c #60605F",
"t. c #646058",
"y. c #64615B",
"u. c #68655F",
"i. c #656461",
"p. c #6B6963",
"a. c #6E6C66",
"s. c #6E6C67",
"d. c gray42",
"f. c #74736F",
"g. c #787671",
"h. c #7F7E7A",
"j. c #835F05",
"k. c #846005",
"l. c #886100",
"z. c #8A6300",
"x. c #8A6405",
"c. c #8C6500",
"v. c #8D6603",
"b. c #8E6600",
"n. c #8F6600",
"m. c #926900",
"M. c #936900",
"N. c #936A00",
"B. c #946A00",
"V. c #976D02",
"C. c #996D00",
"Z. c #986D02",
"A. c #9C7000",
"S. c #9E7200",
"D. c #9F7200",
"F. c #A27501",
"G. c #A37500",
"H. c #A67801",
"J. c #A87900",
"K. c #AD7C00",
"L. c #AE7D00",
"P. c #AF7E00",
"I. c #B17F00",
"U. c #B58200",
"Y. c #B88400",
"T. c #B98500",
"R. c #BE8800",
"E. c #BF8900",
"W. c #C08A00",
"Q. c #C38C00",
"!. c #C88F00",
"~. c #CC9200",
"^. c #CD9300",
"/. c #CE9400",
"(. c #CF9400",
"). c #D09500",
"_. c #D29600",
"`. c #D39700",
"'. c #D49800",
"]. c #D59800",
"[. c #D69900",
"{. c #D79A00",
"}. c #D89B00",
"|. c #D99B00",
" X c #DA9C00",
".X c #DC9D00",
"XX c #DC9E00",
"oX c #DD9F00",
"OX c #DEA000",
"+X c #E0A100",
"@X c #E1A200",
"#X c #E4A400",
"$X c #E5A400",
"%X c #E8A700",
"&X c #EBA900",
"*X c #ECA900",
"=X c #EEAB00",
"-X c #F5B000",
";X c #F7B100",
":X c #F8B200",
">X c #F9B300",
",X c #FAB300",
"<X c #FBB400",
"1X c gray52",
"2X c #888888",
"3X c #8D8C8B",
"4X c #999897",
"5X c #989898",
"6X c #9B9B9B",
"7X c #9F9F9F",
"8X c #A0A09F",
"9X c #A2A2A2",
"0X c #A6A6A5",
"qX c #ACACAB",
"wX c #B2B2B2",
"eX c #B6B6B6",
"rX c #B9B9B9",
"tX c #BCBCBC",
"yX c #C1C1C1",
"uX c #C6C6C6",
"iX c #CBCBCB",
"pX c #CECECE",
"aX c gray81",
"sX c gray82",
"dX c LightGray",
"fX c #D7D7D7",
"gX c gray86",
"hX c gray89",
"jX c gray92",
"kX c #F1F1F1",
"lX c #F4F4F4",
"zX c #F8F8F8",
"xX c gray98",
"cX c gray99",
"vX c #FDFDFD",
"bX c #FEFEFE",
"nX c gray100",
"mX c None",
/* pixels */
"mXmXmXmXmXmXmXmXmX    0 & ; Z | / C ; = ;     mXmXmXmXmXmXmXmXmX",
"mXmXmXmXmXmXmX  + ; / C.$X<X<X<X<X<X<X+XN.W ; +   mXmXmXmXmXmXmX",
"mXmXmXmXmXmX  ; o.{.<X<X<X<X<X<X<X<X<X<X<X<X(./ ;   mXmXmXmXmXmX",
"mXmXmXmXmX# 0 E.>XoXD.2.P :.W.<X<X<X<X<X<X<X<X<XK.; + mXmXmXmXmX",
"mXmXmXmX; C oX>Xj.h y.4X3 1Xh W.<X<X<X<X<X<X<X<X<X`.s ; mXmXmXmX",
"mXmXmX# Z =X<XO.7.jXnXnXe gXy.C.<X<X<X<X<X<X<X<X<X<X%Xa   mXmXmX",
"mXmX  0 oX<XK.&.nXnXnXnXk sXu.B.<X<X<X<X<X<X<X<X<X<X<X[.;   mXmX",
"mX  ; Y.<X<X3.6XnXnXnXnXz uXs.c.<X<X<X<X<X<X<X<X<X<X<X<XJ.; mXmX",
"mX   .<X<X<X<.rXnXnXnXnXM tXf.x.<X<X<X<X<X<X<X<X<X<X<X<X<XI   mX",
"  ; [.<X<X<X3.7XnXnXnXnXH d.` D.<X<X<X<X<X<X<X<X<X<X<X<X<XQ.;   ",
"  ! <X<X<X<Xc.h.nXnXnXfXl ..D.<X<X<X<X<X<X<X<X<X<X<X<X<X<X<XZ   ",
"0 B.<X<X<X<XK.q.nXnXnXm F.<X<X<X<X<X<X<X<X<X<X<X<X<X<X<X<X<X6.= ",
"; +X<X<X<X<X~.{ nXnXhXg >X<X<X<X<X<X<X<X<X<X<X<X<X<X<X<X<X<X).7 ",
"& <X<X<X<X<X=Xn nXnXnXu [.<X<X<X<X<X<X<X<X<X<X<X<X<X<X<X<X<X<X+ ",
"C <X<X<X<X<X<Xr lXnXnX4X..<X<X<X<X<X<X<X<X<X<X<X<X<X<X<X<X<X<X; ",
"! <X<X<X<X<X<X%.9XnXnXnX[ H.<X<X<X<X<X<X<X<X<X<X<X<X<X<X<X<X<XS ",
"! <X<X<X<X<X<XW.' nXnXnXpXj =X<X<X<X<X<X<X<X<X<X<X<X<X<X<X<X<XZ ",
"B <X<X<X<X<X<X<XT yXnXnXnXa.3.<X<X<X<X<X<X<X<X<X<X<X<X<X<X<X<X; ",
"& <X<X<X<X<X<X<XF.9.nXnXnXkXn ~.<X<X<X<X<X<X<X<X<X<X<X<X<X<X<X+ ",
"; oX<X<X<X<X<X<X-XF iXnXnXnX0XR <X<X<X<X<X<X<X<X<X<X<X<X<X<X(.7 ",
"7 N.<X<X<X<X<X<X<XY.H jXnXnXnX=.C.<X<X=XI.N.oX<X<X<X<X<X<X<X5.# ",
"  W <X<X<X<X<X<X<X<Xj.=.lXnXnXgXK #.) 4 z y.y C.<X<X<X<X<X<XC   ",
"  ; ).<X<X<X<X<X<X<X>X>.0.cXnXnXlXeXuX2X6 i.aX] $.%X<X<X<XE.;   ",
"mX+ | <X<X<X<X<X<X<X<X>X%.w.nXnXnXnXnXnXgXJ _ iXg.F -X<X<XG   mX",
"mX  0 U.<X<X<X<X<X<X<X<X>X+.7.jXnXnXnXnXnXnXw.2 3Xm (.<XD.; mXmX",
"mXmX  ;  X<X<X<X<X<X<X<X<X>Xx.n qXnXnXnXnXnXnXwX6 q >X~.&   mXmX",
"mXmXmX+ d &X<X<X<X<X<X<X<X<X<X[.R 1.9XdXgXtXp.u %.~.$Xw   mXmXmX",
"mXmXmXmX; d {.<X<X<X<X<X<X<X<X<X<XK.,.( L #.c.$X<X).w - mXmXmXmX",
"mXmXmXmXmX  0 I.<X<X<X<X<X<X<X<X<X<X<X<X<X<X<X<XJ.;   mXmXmXmXmX",
"mXmXmXmXmXmX  ; / ).<X<X<X<X<X<X<X<X<X<X<X<X!.Y 0   mXmXmXmXmXmX",
"mXmXmXmXmXmXmX    ; Y c. X<X<X<X<X<X<X[.z.I ;   mXmXmXmXmXmXmXmX",
"mXmXmXmXmXmXmXmXmX    ; ; & s Y U a & ; ;     mXmXmXmXmXmXmXmXmX"
};
